<svg width="64" height="64" viewBox="0 0 64 64" fill="none" xmlns="http://www.w3.org/2000/svg">
<path fill-rule="evenodd" clip-rule="evenodd" d="M31.2887 2.84442C46.9981 2.84442 59.7331 15.5794 59.7331 31.2889C59.7331 46.9983 46.9981 59.7333 31.2887 59.7333C15.5793 59.7333 2.84424 46.9983 2.84424 31.2889C2.84424 15.5794 15.5793 2.84442 31.2887 2.84442Z" fill="white"/>
<path fill-rule="evenodd" clip-rule="evenodd" d="M49.1558 9.15503C55.6074 14.3695 59.7331 22.3474 59.7331 31.2888C59.7331 46.9983 46.998 59.7333 31.2886 59.7333C22.3471 59.7333 14.3693 55.6076 9.15479 49.156C14.0381 53.1029 20.254 55.4666 27.0219 55.4666C42.7314 55.4666 55.4664 42.7316 55.4664 27.0222C55.4664 20.2542 53.1027 14.0383 49.1558 9.15503V9.15503Z" fill="#F8EEDF"/>
<path fill-rule="evenodd" clip-rule="evenodd" d="M61.1557 31.2889C61.1557 14.794 47.7839 1.42224 31.289 1.42224C14.7941 1.42224 1.42236 14.794 1.42236 31.2889C1.42236 47.7838 14.7941 61.1556 31.289 61.1556C47.7839 61.1556 61.1557 47.7838 61.1557 31.2889ZM4.26667 31.2889C4.26667 16.3649 16.3649 4.26667 31.2889 4.26667C46.2129 4.26667 58.3111 16.3649 58.3111 31.2889C58.3111 46.2129 46.2129 58.3111 31.2889 58.3111C16.3649 58.3111 4.26667 46.2129 4.26667 31.2889Z" fill="#154E84"/>
<path fill-rule="evenodd" clip-rule="evenodd" d="M49.1558 9.15503C55.6074 14.3695 59.7331 22.3474 59.7331 31.2888C59.7331 46.9983 46.998 59.7333 31.2886 59.7333C22.3471 59.7333 14.3693 55.6076 9.15479 49.156C14.0381 53.1029 20.254 55.4666 27.0219 55.4666C42.7314 55.4666 55.4664 42.7316 55.4664 27.0222C55.4664 20.2542 53.1027 14.0383 49.1558 9.15503V9.15503Z" fill="#F8EEDF"/>
<path fill-rule="evenodd" clip-rule="evenodd" d="M32.289 2.42224C48.7839 2.42224 62.1557 15.794 62.1557 32.2889C62.1557 48.7838 48.7839 62.1556 32.289 62.1556C15.7941 62.1556 2.42236 48.7838 2.42236 32.2889C2.42236 15.794 15.7941 2.42224 32.289 2.42224Z" fill="#FFD48C"/>
<path d="M63 32C63 49.1208 49.1208 63 32 63C14.8792 63 1 49.1208 1 32C1 14.8792 14.8792 1 32 1C49.1208 1 63 14.8792 63 32Z" stroke="black" stroke-width="2"/>
<path fill-rule="evenodd" clip-rule="evenodd" d="M28.9879 38.3845L21.4214 30.9152C20.8624 30.3634 19.9619 30.3693 19.4101 30.9283C18.8583 31.4873 18.8641 32.3878 19.4231 32.9396L28.0962 41.5011C28.6907 42.088 29.6607 42.0385 30.1923 41.3941L44.2748 24.3274C44.7747 23.7216 44.6888 22.8252 44.0829 22.3253C43.4771 21.8254 42.5807 21.9112 42.0808 22.5171L28.9879 38.3845Z" fill="black"/>
</svg>
